#!OML:ASF E:\VariousWalksJay\Project 1\Capture day 1\Session 1\Actor2.ASF
:FULLY-SPECIFIED
:DEGREES
1027
root -7.3832 16.7927 40.8353 4.49679 -21.7217 -5.17975
lowerback -7.88589 0.767792 5.39781
upperback -4.94991 0.646835 -1.20009
thorax -0.646376 0.175741 -4.23159
lowerneck -8.70095 -2.86716 -2.35055
upperneck 5.93017 -4.36909 9.63876
head 3.46293 -1.79597 3.0701
rclavicle -7.7526e-015 -1.11319e-014
rhumerus 119.349 -35.0896 -94.4554
rradius 16.9206
rwrist -26.6182
rhand -24.7644 -13.9574
rfingers 7.12502
rthumb 1.73907 -43.9301
lclavicle -7.7526e-015 -1.11319e-014
lhumerus -74.5686 -214.078 260.197
lradius 16.9297
lwrist 39.0389
lhand -25.6928 1.72102
lfingers 7.12502
lthumb 0.842467 31.6991
rfemur -9.31141 -12.9208 25.3766
rtibia 32.4471
rfoot -23.4837 3.76285
rtoes 9.61171
lfemur -5.40062 4.4232 -14.3126
ltibia 27.3954
lfoot -23.9138 4.23696
ltoes 0.285481
1028
root -7.37808 16.794 40.8325 4.50252 -21.7029 -5.16378
lowerback -7.89148 0.759001 5.40077
upperback -4.93035 0.634454 -1.1977
thorax -0.624323 0.170685 -4.23157
lowerneck -8.69708 -2.87459 -2.34917
upperneck 5.96479 -4.38104 9.62582
head 3.47308 -1.80155 3.06516
rclavicle -2.92213e-014 -1.59028e-015
rhumerus 119.101 -35.292 -94.1577
rradius 17.0052
rwrist -26.8113
rhand -24.784 -13.9647
rfingers 7.12502
rthumb 1.72022 -43.9375
lclavicle -2.92213e-014 -1.59028e-015
lhumerus -74.6216 -214.119 260.017
lradius 16.9868
lwrist 39.0673
lhand -25.6513 1.80315
lfingers 7.12502
lthumb 0.882516 31.7811
rfemur -9.34906 -12.9268 25.3577
rtibia 32.4588
rfoot -23.4646 3.73771
rtoes 9.60485
lfemur -5.4284 4.44867 -14.3389
ltibia 27.383
lfoot -23.8842 4.19772
ltoes 0.297071
1029
root -7.37308 16.7953 40.8291 4.51148 -21.6786 -5.14336
lowerback -7.89335 0.748185 5.39442
upperback -4.91252 0.620221 -1.19671
thorax -0.60633 0.164723 -4.22793
lowerneck -8.70313 -2.88268 -2.3409
upperneck 6.01043 -4.39491 9.60481
head 3.48797 -1.80769 3.05639
rclavicle 0 1.03368e-014
rhumerus 118.835 -35.5354 -93.8035
rradius 17.0497
rwrist -27.0599
rhand -24.8428 -13.8951
rfingers 7.12502
rthumb 1.66339 -43.8684
lclavicle 0 1.03368e-014
lhumerus -74.6803 -214.166 259.833
lradius 17.0399
lwrist 39.1042
lhand -25.6169 1.87404
lfingers 7.12502
lthumb 0.915721 31.8518
rfemur -9.39372 -12.9261 25.3394
rtibia 32.4682
rfoot -23.4452 3.6979
rtoes 9.59072
lfemur -5.46767 4.47359 -14.3683
ltibia 27.3753
lfoot -23.8528 4.15197
ltoes 0.307657
1030
root -7.36817 16.7967 40.8252 4.52415 -21.6554 -5.14295
lowerback -7.88007 0.738758 5.40173
upperback -4.89679 0.607857 -1.18953
thorax -0.598697 0.159146 -4.2255
lowerneck -8.71728 -2.88819 -2.32567
upperneck 6.06967 -4.40649 9.5749
head 3.50778 -1.81232 3.04378
rclavicle -1.98785e-016 -1.11319e-014
rhumerus 118.549 -35.8112 -93.4007
rradius 17.0737
rwrist -27.3674
rhand -24.9234 -13.7994
rfingers 7.12502
rthumb 1.58556 -43.7732
lclavicle -1.98785e-016 -1.11319e-014
lhumerus -74.7549 -214.215 259.651
lradius 17.1001
lwrist 39.1429
lhand -25.5941 1.92491
lfingers 7.12502
lthumb 0.937758 31.9026
rfemur -9.43488 -12.9126 25.344
rtibia 32.4749
rfoot -23.4262 3.64606
rtoes 9.58519
lfemur -5.50752 4.49734 -14.3753
ltibia 27.3719
lfoot -23.8214 4.10544
ltoes 0.309196
1031
root -7.36341 16.798 40.8209 4.53425 -21.6353 -5.14033
lowerback -7.85706 0.729915 5.40173
upperback -4.88183 0.597308 -1.18174
thorax -0.597033 0.154457 -4.21821
lowerneck -8.73624 -2.89111 -2.3085
upperneck 6.13447 -4.41506 9.54303
head 3.52979 -1.81524 3.03037
rclavicle 1.35174e-014 2.38542e-015
rhumerus 118.243 -36.1125 -92.9565
rradius 17.0959
rwrist -27.751
rhand -25.0228 -13.7162
rfingers 7.12502
rthumb 1.48956 -43.6908
lclavicle 1.35174e-014 2.38542e-015
lhumerus -74.8357 -214.267 259.473
lradius 17.1586
lwrist 39.1777
lhand -25.6117 1.87926
lfingers 7.12502
lthumb 0.920758 31.857
rfemur -9.47483 -12.8916 25.3481
rtibia 32.4803
rfoot -23.4077 3.58429
rtoes 9.56502
lfemur -5.5471 4.52156 -14.3837
ltibia 27.3703
lfoot -23.7893 4.05943
ltoes 0.306939
1032
root -7.35866 16.7994 40.8166 4.54151 -21.6203 -5.14108
lowerback -7.822 0.72253 5.40161
upperback -4.86906 0.589422 -1.17147
thorax -0.604028 0.150837 -4.20815
lowerneck -8.75141 -2.8908 -2.29012
upperneck 6.19882 -4.41933 9.51089
head 3.55075 -1.81613 3.01699
rclavicle -4.06515e-014 -3.97569e-015
rhumerus 117.908 -36.4274 -92.4801
rradius 17.1283
rwrist -28.1812
rhand -25.1466 -13.6312
rfingers 7.12502
rthumb 1.36996 -43.6066
lclavicle -4.06515e-014 -3.97569e-015
lhumerus -74.9264 -214.321 259.305
lradius 17.2168
lwrist 39.1935
lhand -25.6738 1.69337
lfingers 7.12502
lthumb 0.860774 31.6714
rfemur -9.50926 -12.8689 25.3544
rtibia 32.4837
rfoot -23.3883 3.5239
rtoes 9.55471
lfemur -5.58276 4.54763 -14.3884
ltibia 27.3706
lfoot -23.7584 4.01457
ltoes 0.300571
1033
root -7.35388 16.8007 40.8124 4.54453 -21.61 -5.14548
lowerback -7.77922 0.718934 5.40538
upperback -4.85711 0.586785 -1.16016
thorax -0.615535 0.149631 -4.19884
lowerneck -8.75089 -2.88762 -2.28172
upperneck 6.25175 -4.4188 9.49265
head 3.56593 -1.81501 3.00999
rclavicle 2.70347e-014 -1.43125e-014
rhumerus 117.586 -36.7163 -92.0552
rradius 17.189
rwrist -28.5239
rhand -25.22 -13.6058
rfingers 7.12502
rthumb 1.29911 -43.5816
lclavicle 2.70347e-014 -1.43125e-014
lhumerus -75.0256 -214.369 259.153
lradius 17.277
lwrist 39.1864
lhand -25.7751 1.40021
lfingers 7.12502
lthumb 0.762993 31.3786
rfemur -9.53612 -12.85 25.3615
rtibia 32.4866
rfoot -23.3705 3.46787
rtoes 9.5301
lfemur -5.60982 4.57618 -14.3895
ltibia 27.3701
lfoot -23.7286 3.97261
ltoes 0.285449
